<?xml version="1.0" encoding="UTF-8"?>
<svg xmlns="http://www.w3.org/2000/svg" xmlns:xlink="http://www.w3.org/1999/xlink" width="595.28pt" height="172.37pt" viewBox="0 0 595.28 172.37" version="1.1">
<defs>
<clipPath id="clip1">
  <path d="M 0 168 L 364 168 L 364 172.371094 L 0 172.371094 Z M 0 168 "/>
</clipPath>
<clipPath id="clip2">
  <path d="M 382 155 L 396 155 L 396 172.371094 L 382 172.371094 Z M 382 155 "/>
</clipPath>
<clipPath id="clip3">
  <path d="M 416 155 L 429 155 L 429 172.371094 L 416 172.371094 Z M 416 155 "/>
</clipPath>
<clipPath id="clip4">
  <path d="M 429 155 L 444 155 L 444 172.371094 L 429 172.371094 Z M 429 155 "/>
</clipPath>
<clipPath id="clip5">
  <path d="M 493 155 L 508 155 L 508 172.371094 L 493 172.371094 Z M 493 155 "/>
</clipPath>
<clipPath id="clip6">
  <path d="M 509 156 L 521 156 L 521 172.371094 L 509 172.371094 Z M 509 156 "/>
</clipPath>
<clipPath id="clip7">
  <path d="M 580 155 L 594 155 L 594 172.371094 L 580 172.371094 Z M 580 155 "/>
</clipPath>
<clipPath id="clip8">
  <path d="M 579 67 L 595.28125 67 L 595.28125 136 L 579 136 Z M 579 67 "/>
</clipPath>
</defs>
<g id="surface1">
<path style=" stroke:none;fill-rule:nonzero;fill:rgb(70.599365%,72.499084%,75.698853%);fill-opacity:1;" d="M 330.246094 137.03125 L 264.425781 137.03125 L 264.425781 59.382813 L 330.246094 59.382813 L 330.246094 137.03125 "/>
<g clip-path="url(#clip1)" clip-rule="nonzero">
<path style=" stroke:none;fill-rule:nonzero;fill:rgb(92.199707%,17.599487%,17.999268%);fill-opacity:1;" d="M -20.886719 168.519531 L -20.886719 172.078125 L 363.972656 172.078125 L 363.972656 168.519531 L -20.886719 168.519531 "/>
</g>
<path style=" stroke:none;fill-rule:nonzero;fill:rgb(92.199707%,17.599487%,17.999268%);fill-opacity:1;" d="M 373.632813 171.960938 L 370.714844 171.960938 L 370.714844 156.382813 L 380.675781 156.382813 L 380.675781 159.125 L 373.632813 159.125 L 373.632813 162.65625 L 379.800781 162.65625 L 379.800781 165.410156 L 373.632813 165.410156 L 373.632813 171.960938 "/>
<g clip-path="url(#clip2)" clip-rule="nonzero">
<path style=" stroke:none;fill-rule:nonzero;fill:rgb(92.199707%,17.599487%,17.999268%);fill-opacity:1;" d="M 382.003906 164.164063 C 382.003906 171.496094 386.875 172.371094 388.757813 172.371094 C 390.597656 172.371094 395.496094 171.496094 395.496094 164.164063 C 395.496094 156.863281 390.597656 155.972656 388.757813 155.972656 C 386.875 155.972656 382.003906 156.863281 382.003906 164.164063 M 384.9375 164.164063 C 384.9375 159.808594 387.167969 158.722656 388.757813 158.722656 C 390.332031 158.722656 392.550781 159.808594 392.550781 164.164063 C 392.550781 168.546875 390.332031 169.613281 388.757813 169.613281 C 387.167969 169.613281 384.9375 168.546875 384.9375 164.164063 "/>
</g>
<path style=" stroke:none;fill-rule:nonzero;fill:rgb(92.199707%,17.599487%,17.999268%);fill-opacity:1;" d="M 397.832031 171.960938 L 400.703125 171.960938 L 400.703125 165.871094 L 403.730469 165.871094 C 405.882813 165.871094 406.007813 166.703125 406.007813 168.816406 C 406.007813 170.429688 406.132813 171.230469 406.335938 171.960938 L 409.574219 171.960938 L 409.574219 171.554688 C 408.9375 171.289063 408.9375 170.722656 408.9375 168.445313 C 408.9375 165.550781 408.304688 165.070313 407.175781 164.507813 C 408.539063 163.980469 409.324219 162.496094 409.324219 160.789063 C 409.324219 159.445313 408.640625 156.382813 404.921875 156.382813 L 397.832031 156.382813 L 397.832031 171.960938 M 400.703125 163.238281 L 400.703125 159.066406 L 404.335938 159.066406 C 406.058594 159.066406 406.402344 160.292969 406.402344 161.125 C 406.402344 162.65625 405.664063 163.238281 404.132813 163.238281 L 400.703125 163.238281 "/>
<g clip-path="url(#clip3)" clip-rule="nonzero">
<path style=" stroke:none;fill-rule:nonzero;fill:rgb(92.199707%,17.599487%,17.999268%);fill-opacity:1;" d="M 419.449219 167.175781 C 419.464844 168.039063 419.851563 169.6875 422.410156 169.6875 C 423.796875 169.6875 425.34375 169.3125 425.34375 167.664063 C 425.34375 166.453125 424.292969 166.121094 422.804688 165.734375 L 421.300781 165.347656 C 419.039063 164.753906 416.839844 164.1875 416.839844 160.757813 C 416.839844 159.03125 417.683594 155.972656 422.234375 155.972656 C 426.546875 155.972656 427.675781 159.09375 427.691406 161.007813 L 424.890625 161.007813 C 424.816406 160.304688 424.585938 158.65625 422.015625 158.65625 C 420.914063 158.65625 419.582031 159.117188 419.582031 160.523438 C 419.582031 161.75 420.472656 162 421.0625 162.160156 L 424.480469 163.09375 C 426.394531 163.609375 428.15625 164.476563 428.15625 167.277344 C 428.15625 171.960938 423.847656 172.371094 422.628906 172.371094 C 417.503906 172.371094 416.632813 169.085938 416.632813 167.175781 L 419.449219 167.175781 "/>
</g>
<g clip-path="url(#clip4)" clip-rule="nonzero">
<path style=" stroke:none;fill-rule:nonzero;fill:rgb(92.199707%,17.599487%,17.999268%);fill-opacity:1;" d="M 429.761719 164.164063 C 429.761719 171.496094 434.636719 172.371094 436.496094 172.371094 C 438.347656 172.371094 443.226563 171.496094 443.226563 164.164063 C 443.226563 156.863281 438.347656 155.972656 436.496094 155.972656 C 434.636719 155.972656 429.761719 156.863281 429.761719 164.164063 M 432.679688 164.164063 C 432.679688 159.808594 434.910156 158.722656 436.496094 158.722656 C 438.0625 158.722656 440.285156 159.808594 440.285156 164.164063 C 440.285156 168.546875 438.0625 169.613281 436.496094 169.613281 C 434.910156 169.613281 432.679688 168.546875 432.679688 164.164063 "/>
</g>
<path style=" stroke:none;fill-rule:nonzero;fill:rgb(92.199707%,17.599487%,17.999268%);fill-opacity:1;" d="M 448.492188 169.140625 L 455.464844 169.140625 L 455.464844 171.960938 L 445.5625 171.960938 L 445.5625 156.382813 L 448.492188 156.382813 L 448.492188 169.140625 "/>
<path style=" stroke:none;fill-rule:nonzero;fill:rgb(92.199707%,17.599487%,17.999268%);fill-opacity:1;" d="M 460.183594 171.960938 L 457.265625 171.960938 L 457.265625 156.382813 L 460.183594 156.382813 L 460.183594 171.960938 "/>
<path style=" stroke:none;fill-rule:nonzero;fill:rgb(92.199707%,17.599487%,17.999268%);fill-opacity:1;" d="M 462.921875 171.960938 L 468.972656 171.960938 C 473.617188 171.960938 474.808594 167.148438 474.808594 163.792969 C 474.808594 160.859375 473.832031 156.382813 469.117188 156.382813 L 462.921875 156.382813 L 462.921875 171.960938 M 465.792969 159.066406 L 468.609375 159.066406 C 469.863281 159.066406 471.839844 159.445313 471.839844 164.039063 C 471.839844 166.617188 471.015625 169.261719 468.644531 169.261719 L 465.792969 169.261719 L 465.792969 159.066406 "/>
<path style=" stroke:none;fill-rule:nonzero;fill:rgb(92.199707%,17.599487%,17.999268%);fill-opacity:1;" d="M 485.382813 171.960938 L 482.46875 171.960938 L 482.46875 156.382813 L 492.4375 156.382813 L 492.4375 159.125 L 485.382813 159.125 L 485.382813 162.65625 L 491.5625 162.65625 L 491.5625 165.410156 L 485.382813 165.410156 L 485.382813 171.960938 "/>
<g clip-path="url(#clip5)" clip-rule="nonzero">
<path style=" stroke:none;fill-rule:nonzero;fill:rgb(92.199707%,17.599487%,17.999268%);fill-opacity:1;" d="M 493.757813 164.164063 C 493.757813 171.496094 498.652344 172.371094 500.496094 172.371094 C 502.347656 172.371094 507.234375 171.496094 507.234375 164.164063 C 507.234375 156.863281 502.347656 155.972656 500.496094 155.972656 C 498.652344 155.972656 493.757813 156.863281 493.757813 164.164063 M 496.695313 164.164063 C 496.695313 159.808594 498.90625 158.722656 500.496094 158.722656 C 502.070313 158.722656 504.304688 159.808594 504.304688 164.164063 C 504.304688 168.546875 502.070313 169.613281 500.496094 169.613281 C 498.90625 169.613281 496.695313 168.546875 496.695313 164.164063 "/>
</g>
<g clip-path="url(#clip6)" clip-rule="nonzero">
<path style=" stroke:none;fill-rule:nonzero;fill:rgb(92.199707%,17.599487%,17.999268%);fill-opacity:1;" d="M 520.796875 166.519531 C 520.796875 170.625 518.585938 172.371094 515.039063 172.371094 C 513.757813 172.371094 511.84375 172.019531 510.582031 170.488281 C 509.816406 169.539063 509.539063 168.269531 509.488281 166.710938 L 509.488281 156.382813 L 512.480469 156.382813 L 512.480469 166.492188 C 512.480469 168.671875 513.625 169.613281 514.980469 169.613281 C 517.007813 169.613281 517.8125 168.546875 517.8125 166.636719 L 517.8125 156.382813 L 520.796875 156.382813 L 520.796875 166.519531 "/>
</g>
<path style=" stroke:none;fill-rule:nonzero;fill:rgb(92.199707%,17.599487%,17.999268%);fill-opacity:1;" d="M 532.222656 156.382813 L 534.960938 156.382813 L 534.960938 171.960938 L 532.027344 171.960938 L 526.308594 160.859375 L 526.269531 160.859375 L 526.269531 171.960938 L 523.527344 171.960938 L 523.527344 156.382813 L 526.621094 156.382813 L 532.1875 167.234375 L 532.222656 167.234375 L 532.222656 156.382813 "/>
<path style=" stroke:none;fill-rule:nonzero;fill:rgb(92.199707%,17.599487%,17.999268%);fill-opacity:1;" d="M 537.78125 171.960938 L 543.855469 171.960938 C 548.480469 171.960938 549.671875 167.148438 549.671875 163.792969 C 549.671875 160.859375 548.691406 156.382813 543.96875 156.382813 L 537.78125 156.382813 L 537.78125 171.960938 M 540.640625 159.066406 L 543.457031 159.066406 C 544.710938 159.066406 546.664063 159.445313 546.664063 164.039063 C 546.664063 166.617188 545.863281 169.261719 543.515625 169.261719 L 540.640625 169.261719 L 540.640625 159.066406 "/>
<path style=" stroke:none;fill-rule:nonzero;fill:rgb(92.199707%,17.599487%,17.999268%);fill-opacity:1;" d="M 554.074219 168.753906 L 559.238281 168.753906 L 560.128906 171.960938 L 563.308594 171.960938 L 558.363281 156.382813 L 554.992188 156.382813 L 549.992188 171.960938 L 553.066406 171.960938 L 554.074219 168.753906 M 556.628906 159.898438 L 556.6875 159.898438 L 558.40625 166.0625 L 554.839844 166.0625 L 556.628906 159.898438 "/>
<path style=" stroke:none;fill-rule:nonzero;fill:rgb(92.199707%,17.599487%,17.999268%);fill-opacity:1;" d="M 569.390625 171.960938 L 566.460938 171.960938 L 566.460938 159.125 L 562.214844 159.125 L 562.214844 156.382813 L 573.621094 156.382813 L 573.621094 159.125 L 569.390625 159.125 L 569.390625 171.960938 "/>
<path style=" stroke:none;fill-rule:nonzero;fill:rgb(92.199707%,17.599487%,17.999268%);fill-opacity:1;" d="M 578.042969 171.960938 L 575.125 171.960938 L 575.125 156.382813 L 578.042969 156.382813 L 578.042969 171.960938 "/>
<g clip-path="url(#clip7)" clip-rule="nonzero">
<path style=" stroke:none;fill-rule:nonzero;fill:rgb(92.199707%,17.599487%,17.999268%);fill-opacity:1;" d="M 580.164063 164.164063 C 580.164063 171.496094 585.042969 172.371094 586.894531 172.371094 C 588.75 172.371094 593.621094 171.496094 593.621094 164.164063 C 593.621094 156.863281 588.75 155.972656 586.894531 155.972656 C 585.042969 155.972656 580.164063 156.863281 580.164063 164.164063 M 583.105469 164.164063 C 583.105469 159.808594 585.3125 158.722656 586.894531 158.722656 C 588.492188 158.722656 590.6875 159.808594 590.6875 164.164063 C 590.6875 168.546875 588.492188 169.613281 586.894531 169.613281 C 585.3125 169.613281 583.105469 168.546875 583.105469 164.164063 "/>
</g>
<path style=" stroke:none;fill-rule:nonzero;fill:rgb(0%,56.498718%,29.798889%);fill-opacity:1;" d="M 27.449219 97.421875 L 9.945313 97.421875 L 9.945313 85.566406 C 9.945313 82.113281 9.753906 79.964844 9.390625 79.109375 C 9.027344 78.261719 8.191406 77.832031 6.882813 77.832031 C 5.449219 77.832031 4.515625 78.355469 4.128906 79.394531 C 3.722656 80.429688 3.519531 82.671875 3.519531 86.136719 L 3.519531 117.84375 C 3.519531 121.160156 3.722656 123.328125 4.128906 124.335938 C 4.515625 125.339844 5.394531 125.851563 6.761719 125.851563 C 8.09375 125.851563 8.945313 125.339844 9.339844 124.335938 C 9.742188 123.3125 9.945313 120.921875 9.945313 117.171875 L 9.945313 108.601563 L 27.449219 108.601563 L 27.449219 111.265625 C 27.449219 118.351563 26.960938 123.378906 25.964844 126.347656 C 24.992188 129.300781 22.8125 131.890625 19.441406 134.128906 C 16.074219 136.355469 11.925781 137.476563 6.96875 137.476563 C 1.84375 137.476563 -2.394531 136.527344 -5.714844 134.632813 C -9.070313 132.75 -11.28125 130.140625 -12.355469 126.800781 C -13.441406 123.457031 -13.976563 118.441406 -13.976563 111.746094 L -13.976563 91.761719 C -13.976563 86.839844 -13.8125 83.148438 -13.476563 80.679688 C -13.132813 78.214844 -12.136719 75.839844 -10.5 73.566406 C -8.855469 71.273438 -6.5625 69.492188 -3.640625 68.1875 C -0.714844 66.875 2.664063 66.203125 6.460938 66.203125 C 11.632813 66.203125 15.917969 67.222656 19.261719 69.265625 C 22.605469 71.273438 24.804688 73.800781 25.863281 76.820313 C 26.917969 79.835938 27.449219 84.554688 27.449219 90.929688 L 27.449219 97.421875 "/>
<path style=" stroke:none;fill-rule:nonzero;fill:rgb(0%,56.498718%,29.798889%);fill-opacity:1;" d="M 33.742188 135.988281 L 51.261719 135.988281 L 51.261719 105.136719 C 53.699219 105.136719 55.214844 105.574219 55.769531 106.449219 C 56.339844 107.316406 56.640625 109.578125 56.640625 113.242188 L 56.640625 135.988281 L 72.933594 135.988281 L 72.933594 117.945313 C 72.933594 112.429688 72.769531 109.046875 72.488281 107.820313 C 72.1875 106.601563 71.445313 105.238281 70.242188 103.78125 C 69.046875 102.316406 66.703125 101.140625 63.257813 100.28125 C 67.089844 99.90625 69.65625 98.804688 70.964844 96.984375 C 72.269531 95.160156 72.933594 91.5625 72.933594 86.257813 C 72.933594 80.429688 72.003906 76.1875 70.175781 73.527344 C 68.316406 70.871094 65.921875 69.21875 62.992188 68.566406 C 60.066406 67.925781 54.453125 67.589844 46.175781 67.589844 L 33.742188 67.589844 L 33.742188 135.988281 M 55.484375 80.308594 C 56.25 80.988281 56.640625 82.410156 56.640625 84.5625 L 56.640625 88.324219 C 56.640625 91.332031 56.222656 93.101563 55.4375 93.65625 C 54.640625 94.203125 53.238281 94.472656 51.261719 94.472656 L 51.261719 79.296875 C 53.296875 79.296875 54.71875 79.644531 55.484375 80.308594 "/>
<path style=" stroke:none;fill-rule:nonzero;fill:rgb(0%,56.498718%,29.798889%);fill-opacity:1;" d="M 119.710938 95.992188 C 119.710938 88.953125 119.542969 84.019531 119.226563 81.214844 C 118.910156 78.386719 117.871094 75.792969 116.125 73.390625 C 114.371094 71.003906 112.058594 69.214844 109.1875 68.011719 C 106.308594 66.8125 103.0625 66.203125 99.421875 66.203125 C 95.617188 66.203125 92.289063 66.847656 89.433594 68.121094 C 86.578125 69.386719 84.316406 71.199219 82.625 73.566406 C 80.953125 75.929688 79.960938 78.539063 79.621094 81.398438 C 79.308594 84.242188 79.144531 89.121094 79.144531 95.992188 L 79.144531 107.691406 C 79.144531 114.726563 79.308594 119.652344 79.65625 122.472656 C 79.984375 125.28125 81.035156 127.894531 82.78125 130.285156 C 84.527344 132.679688 86.832031 134.472656 89.714844 135.667969 C 92.578125 136.871094 95.824219 137.476563 99.421875 137.476563 C 103.230469 137.476563 106.5625 136.835938 109.4375 135.574219 C 112.289063 134.304688 114.558594 132.496094 116.257813 130.117188 C 117.945313 127.753906 118.925781 125.144531 119.25 122.285156 C 119.566406 119.425781 119.710938 114.554688 119.710938 107.691406 L 119.710938 95.992188 M 102.210938 116.617188 C 102.210938 120.644531 102.039063 123.1875 101.71875 124.253906 C 101.386719 125.320313 100.613281 125.851563 99.386719 125.851563 C 98.210938 125.851563 97.472656 125.390625 97.15625 124.464844 C 96.808594 123.53125 96.65625 121.082031 96.65625 117.128906 L 96.65625 85.257813 C 96.65625 81.734375 96.890625 79.628906 97.402344 78.910156 C 97.90625 78.183594 98.601563 77.832031 99.511719 77.832031 C 100.621094 77.832031 101.347656 78.269531 101.679688 79.160156 C 102.039063 80.050781 102.210938 82.074219 102.210938 85.257813 L 102.210938 116.617188 "/>
<path style=" stroke:none;fill-rule:nonzero;fill:rgb(0%,56.498718%,29.798889%);fill-opacity:1;" d="M 192.136719 67.589844 L 184.332031 135.988281 L 162.527344 135.988281 C 160.566406 125.480469 158.820313 113.511719 157.238281 100.089844 C 156.503906 105.851563 154.859375 117.835938 152.300781 135.988281 L 130.628906 135.988281 L 122.789063 67.589844 L 139.769531 67.589844 L 141.59375 91.46875 L 143.371094 114.574219 C 144.039063 102.597656 145.691406 86.949219 148.277344 67.589844 L 166.382813 67.589844 C 166.59375 69.605469 167.238281 77.125 168.292969 90.171875 L 170.324219 116.222656 C 171.335938 99.644531 172.9375 83.425781 175.136719 67.589844 L 192.136719 67.589844 "/>
<path style=" stroke:none;fill-rule:nonzero;fill:rgb(0%,56.498718%,29.798889%);fill-opacity:1;" d="M 234.878906 67.589844 L 234.878906 135.988281 L 219.445313 135.988281 L 210.339844 104.890625 L 210.339844 135.988281 L 195.691406 135.988281 L 195.691406 67.589844 L 210.433594 67.589844 L 220.21875 98.398438 L 220.21875 67.589844 L 234.878906 67.589844 "/>
<path style=" stroke:none;fill-rule:nonzero;fill:rgb(0%,56.498718%,29.798889%);fill-opacity:1;" d="M 397.949219 97.421875 L 380.429688 97.421875 L 380.429688 85.566406 C 380.429688 82.113281 380.253906 79.964844 379.902344 79.109375 C 379.53125 78.261719 378.691406 77.832031 377.378906 77.832031 C 375.957031 77.832031 375.03125 78.355469 374.621094 79.394531 C 374.230469 80.429688 374.039063 82.671875 374.039063 86.136719 L 374.039063 117.84375 C 374.039063 121.160156 374.230469 123.328125 374.621094 124.335938 C 375.03125 125.339844 375.90625 125.851563 377.261719 125.851563 C 378.574219 125.851563 379.449219 125.339844 379.851563 124.335938 C 380.253906 123.3125 380.429688 120.921875 380.429688 117.171875 L 380.429688 108.601563 L 397.949219 108.601563 L 397.949219 111.265625 C 397.949219 118.351563 397.460938 123.378906 396.480469 126.347656 C 395.496094 129.300781 393.308594 131.890625 389.953125 134.128906 C 386.585938 136.355469 382.425781 137.476563 377.46875 137.476563 C 372.347656 137.476563 368.117188 136.527344 364.777344 134.632813 C 361.449219 132.75 359.234375 130.140625 358.152344 126.800781 C 357.054688 123.457031 356.519531 118.441406 356.519531 111.746094 L 356.519531 91.761719 C 356.519531 86.839844 356.695313 83.148438 357.015625 80.679688 C 357.367188 78.214844 358.359375 75.839844 360.007813 73.566406 C 361.652344 71.273438 363.929688 69.492188 366.863281 68.1875 C 369.78125 66.875 373.164063 66.203125 376.957031 66.203125 C 382.144531 66.203125 386.410156 67.222656 389.75 69.265625 C 393.105469 71.273438 395.308594 73.800781 396.371094 76.820313 C 397.4375 79.835938 397.949219 84.554688 397.949219 90.929688 L 397.949219 97.421875 "/>
<path style=" stroke:none;fill-rule:nonzero;fill:rgb(0%,56.498718%,29.798889%);fill-opacity:1;" d="M 404.25 67.589844 L 433.453125 67.589844 L 433.453125 81.296875 L 421.753906 81.296875 L 421.753906 94.300781 L 432.679688 94.300781 L 432.679688 107.3125 L 421.753906 107.3125 L 421.753906 122.300781 L 434.597656 122.300781 L 434.597656 135.988281 L 404.25 135.988281 L 404.25 67.589844 "/>
<path style=" stroke:none;fill-rule:nonzero;fill:rgb(0%,56.498718%,29.798889%);fill-opacity:1;" d="M 493.769531 67.589844 L 493.769531 135.988281 L 478.433594 135.988281 L 478.382813 89.820313 L 472.269531 135.988281 L 461.519531 135.988281 L 455.0625 90.855469 L 455.027344 135.988281 L 439.667969 135.988281 L 439.667969 67.589844 L 462.378906 67.589844 C 463.007813 71.722656 463.691406 76.558594 464.4375 82.136719 L 466.9375 99.535156 L 470.914063 67.589844 L 493.769531 67.589844 "/>
<path style=" stroke:none;fill-rule:nonzero;fill:rgb(0%,56.498718%,29.798889%);fill-opacity:1;" d="M 500.789063 67.589844 L 530.015625 67.589844 L 530.015625 81.296875 L 518.292969 81.296875 L 518.292969 94.300781 L 529.21875 94.300781 L 529.21875 107.3125 L 518.292969 107.3125 L 518.292969 122.300781 L 531.136719 122.300781 L 531.136719 135.988281 L 500.789063 135.988281 L 500.789063 67.589844 "/>
<path style=" stroke:none;fill-rule:nonzero;fill:rgb(0%,56.498718%,29.798889%);fill-opacity:1;" d="M 575.394531 67.589844 L 575.394531 135.988281 L 559.960938 135.988281 L 550.871094 104.890625 L 550.871094 135.988281 L 536.222656 135.988281 L 536.222656 67.589844 L 550.953125 67.589844 L 560.757813 98.398438 L 560.757813 67.589844 L 575.394531 67.589844 "/>
<g clip-path="url(#clip8)" clip-rule="nonzero">
<path style=" stroke:none;fill-rule:nonzero;fill:rgb(0%,56.498718%,29.798889%);fill-opacity:1;" d="M 617.675781 67.589844 L 617.675781 81.296875 L 607.273438 81.296875 L 607.273438 135.988281 L 589.742188 135.988281 L 589.742188 81.296875 L 579.347656 81.296875 L 579.347656 67.589844 L 617.675781 67.589844 "/>
</g>
<path style=" stroke:none;fill-rule:nonzero;fill:rgb(13.699341%,12.199402%,12.5%);fill-opacity:1;" d="M 338.320313 52.796875 L 255.441406 52.796875 L 255.441406 40.492188 L 338.320313 40.492188 L 338.320313 52.796875 "/>
<path style=" stroke:none;fill-rule:nonzero;fill:rgb(13.699341%,12.199402%,12.5%);fill-opacity:1;" d="M 372.515625 6.496094 L 221.253906 6.496094 L 221.253906 0.00390625 L 372.515625 0.00390625 L 372.515625 6.496094 "/>
<path style=" stroke:none;fill-rule:nonzero;fill:rgb(13.699341%,12.199402%,12.5%);fill-opacity:1;" d="M 332.828125 78.550781 L 261.128906 78.550781 L 261.128906 67.550781 L 332.828125 67.550781 L 332.828125 78.550781 "/>
<path style=" stroke:none;fill-rule:nonzero;fill:rgb(13.699341%,12.199402%,12.5%);fill-opacity:1;" d="M 275.976563 137.03125 L 271.023438 137.03125 L 271.023438 85.617188 L 275.976563 85.617188 L 275.976563 137.03125 "/>
<path style=" stroke:none;fill-rule:nonzero;fill:rgb(13.699341%,12.199402%,12.5%);fill-opacity:1;" d="M 286.621094 137.03125 L 281.65625 137.03125 L 281.65625 85.617188 L 286.621094 85.617188 L 286.621094 137.03125 "/>
<path style=" stroke:none;fill-rule:nonzero;fill:rgb(13.699341%,12.199402%,12.5%);fill-opacity:1;" d="M 299.824219 137.03125 L 294.851563 137.03125 L 294.851563 85.617188 L 299.824219 85.617188 L 299.824219 137.03125 "/>
<path style=" stroke:none;fill-rule:nonzero;fill:rgb(13.699341%,12.199402%,12.5%);fill-opacity:1;" d="M 313.019531 137.03125 L 308.074219 137.03125 L 308.074219 85.617188 L 313.019531 85.617188 L 313.019531 137.03125 "/>
<path style=" stroke:none;fill-rule:nonzero;fill:rgb(13.699341%,12.199402%,12.5%);fill-opacity:1;" d="M 326.238281 137.03125 L 321.277344 137.03125 L 321.277344 85.617188 L 326.238281 85.617188 L 326.238281 137.03125 "/>
<path style=" stroke:none;fill-rule:nonzero;fill:rgb(70.599365%,72.499084%,75.698853%);fill-opacity:1;" d="M 260.441406 31.550781 C 254.539063 31.15625 253.605469 22.199219 246.945313 19.078125 C 240.128906 16.46875 234.644531 21.160156 235.097656 25.777344 C 235.265625 31.363281 242.296875 31.28125 241.511719 27.605469 C 241.511719 26.28125 240.976563 24.453125 244.65625 24.710938 C 248.339844 24.984375 248.191406 31.671875 244.925781 33.382813 C 241.464844 35.214844 230.988281 36.015625 229.9375 25.761719 C 228.613281 14.457031 241.511719 14.191406 247.03125 14.191406 L 342.792969 14.191406 C 348.320313 14.191406 361.195313 14.457031 359.890625 25.761719 C 358.839844 36.015625 348.363281 35.214844 344.902344 33.382813 C 341.640625 31.671875 341.472656 24.984375 345.171875 24.710938 C 348.832031 24.453125 348.320313 26.28125 348.320313 27.605469 C 347.519531 31.28125 354.535156 31.363281 354.726563 25.777344 C 355.179688 21.160156 349.691406 16.46875 342.890625 19.078125 C 336.214844 22.199219 335.273438 31.15625 329.386719 31.550781 L 260.441406 31.550781 "/>
</g>
</svg>
